<!-- Generated by IcoMoon.io -->
<svg version="1.1" xmlns="http://www.w3.org/2000/svg" width="512" height="512" viewBox="0 0 512 512">
<title></title>
<g id="icomoon-ignore">
</g>
<path fill="#fff" d="M256 54.060c-62.382 0-113.083 49.764-113.083 110.992 0 48.137 72.821 189.785 113.083 262.803 40.262-73.019 113.083-214.746 113.083-262.803 0-61.229-50.702-110.992-113.083-110.992zM256 486.4l-12.593-22.118c-13.255-23.173-129.487-228.407-129.487-299.231 0-76.922 63.79-139.451 142.078-139.451s142.078 62.529 142.078 139.451c0 70.824-116.231 276.057-129.486 299.231l-12.593 22.118z"></path>
<path fill="#fff" d="M252.778 138.499c-22.767 0-41.386 18.538-41.386 41.386s18.62 41.387 41.387 41.387c22.767 0 41.387-18.538 41.387-41.387s-18.62-41.387-41.387-41.387zM252.778 241.601c-33.988 0-61.715-27.726-61.715-61.714 0-34.070 27.726-61.715 61.714-61.715s61.714 27.645 61.714 61.715c0 33.988-27.726 61.714-61.714 61.714z"></path>
</svg>
