<!-- Generated by IcoMoon.io -->
<svg version="1.1" xmlns="http://www.w3.org/2000/svg" width="512" height="512" viewBox="0 0 512 512">
<title></title>
<g id="icomoon-ignore">
</g>
<path fill="#fff" d="M131.123 42.328v0zM171.165 151.518l-67.855-87.445v-0.093c-0.653-0.84-1.399-1.493-2.147-1.959l-0.466-0.187c-0.933-0.467-2.053-0.84-3.266-0.84-1.121-0.093-2.147 0-2.894 0.28l-0.56 0.28c-1.027 0.373-1.867 1.026-2.8 1.959-3.641 4.013-7.56 8.959-11.293 15.118-3.733 6.253-7.28 13.719-10.267 22.398-13.347 40.316-10.733 84.085 3.361 126.455 15.493 46.661 44.987 91.738 82.415 129.068 37.427 37.423 82.415 66.913 129.083 82.406 42.375 14.092 86.149 16.705 126.563 3.36 8.307-2.8 15.493-6.16 21.56-9.799l0.747-0.466c6.161-3.733 11.201-7.559 15.121-11.292 0.933-0.84 1.587-1.773 2.053-2.8v0c0.373-0.933 0.56-2.147 0.466-3.36 0-1.213-0.28-2.426-0.841-3.36h0.094l-0.094-0.094c-0.28-0.653-0.841-1.307-1.587-1.959l-0.653-0.466-87.361-67.941v-0.094c-0.841-0.56-1.679-0.933-2.426-1.213l-0.373-0.187c-0.933-0.187-1.96-0.28-2.986-0.094h-0.187c-1.213 0.094-2.147 0.56-2.986 0.933h-0.094c-0.747 0.466-1.493 1.213-2.24 2.239v0l-26.787 36.583c-1.399 2.239-3.361 4.106-5.693 5.599-0.094 0-31.361 22.118-69.441-4.479-22.867-15.959-43.868-33.411-62.907-52.541-19.133-19.225-36.774-40.223-52.547-62.901-26.6-38.076-4.48-69.341-4.387-69.341 1.213-2.054 2.8-3.827 4.76-5.226l37.427-27.345c0.746-0.56 1.399-1.213 1.867-1.773l0.28-0.56c0.466-0.84 0.841-1.867 0.933-2.986 0.186-1.121 0.186-2.239-0.094-3.173-0.186-0.653-0.56-1.399-0.933-2.054l-0.56-0.653zM131.218 42.328l67.948 87.446 0.841 1.306c3.173 4.387 5.506 9.145 6.814 14.092 1.494 5.506 1.867 11.292 1.027 17.266-0.933 5.879-2.8 11.386-5.787 16.239l-0.653 1.121c-2.8 4.479-6.534 8.306-11.013 11.572l-1.027 0.653-33.041 24.171c-2.054 4.759-4.573 15.212 4.48 28.278 14.56 20.905 30.801 40.223 48.628 57.955v0c18.013 18.012 37.334 34.25 58.055 48.715 13.067 9.053 23.521 6.533 28.373 4.573l24.827-34.157h-0.094c3.547-4.759 7.747-8.772 12.695-11.666v-0.094c4.947-2.894 10.361-4.759 16.241-5.599l0.653-0.094c5.787-0.747 11.387-0.373 16.613 1.026l1.027 0.28c5.135 1.493 9.986 4.013 14.373 7.466v-0.094l88.949 69.154c4.293 3.733 7.841 8.119 10.454 13.159v-0.094c2.8 5.507 4.48 11.572 4.76 18.012s-0.841 12.599-3.173 18.292h0.094c-2.334 5.693-5.973 10.919-10.641 15.399-5.693 5.133-12.601 10.639-20.907 15.585l-1.121 0.653c-8.026 4.666-17.454 9.147-28.561 12.879-48.067 15.959-99.401 13.065-148.683-3.36-52.174-17.358-102.015-49.835-143.083-90.805-40.975-40.969-73.454-90.899-90.815-143.067-16.334-49.275-19.227-100.604-3.361-148.667 3.919-11.479 8.587-21.278 13.441-29.49l0.093-0.093h-0.093c5.135-8.399 10.547-15.305 15.774-20.905 4.48-4.853 9.614-8.399 15.307-10.733l1.493-0.466c5.227-1.959 10.921-2.8 16.8-2.614 6.534 0.373 12.507 1.959 18.013 4.759l0.841 0.56 13.441 11.386z"></path>
</svg>
